<?xml version="1.0" encoding="utf-8"?>
<!-- Generator: Adobe Illustrator 26.3.1, SVG Export Plug-In . SVG Version: 6.00 Build 0)  -->
<svg version="1.1" id="Capa_1" xmlns="http://www.w3.org/2000/svg" xmlns:xlink="http://www.w3.org/1999/xlink" x="0px" y="0px"
	 viewBox="0 0 39 39" style="enable-background:new 0 0 39 39;" xml:space="preserve">
<style type="text/css">
	.st0{fill:#009CC1;stroke:#FFFFFF;stroke-miterlimit:10;}
	.st1{fill:#FFFFFF;}
</style>
<g id="Capa_2_00000149342198940776150980000017414666729653177987_">
	<g id="Capa_1-2">
		<path class="st0" d="M5.7,0.6h27.5c2.8,0,5.1,2.3,5.1,5.1v27.5c0,2.8-2.3,5.1-5.1,5.1H5.7c-2.8,0-5.1-2.3-5.1-5.1V5.7
			C0.6,2.9,2.9,0.6,5.7,0.6z"/>
		<path class="st1" d="M13.2,8.1v2.5h-0.9V8.1h-1V7.3h2.8v0.8H13.2z"/>
		<path class="st1" d="M17.8,8.9c0,1-0.7,1.8-1.7,1.8S14.3,10,14.3,9S15,7.2,16,7.2h0.1C17,7.2,17.8,8,17.8,8.9z M15.2,8.9
			c0,0.5,0.4,0.8,0.9,0.8c0.5,0,0.8-0.4,0.8-0.9c0-0.4-0.4-0.8-0.8-0.8C15.6,8.1,15.2,8.4,15.2,8.9L15.2,8.9z"/>
		<path class="st1" d="M19.7,8.1v2.5h-0.9V8.1h-1V7.3h2.8v0.8H19.7z"/>
		<path class="st1" d="M23.1,10.6L22.9,10h-1.2l-0.2,0.6h-1.1l1.3-3.3h1.1l1.3,3.3H23.1z M22.7,9.3l-0.4-1l-0.4,1H22.7z"/>
		<path class="st1" d="M27.1,9.8v0.8h-2.5V7.3h0.9v2.5H27.1z"/>
		<path class="st1" d="M11.6,6.6L11.4,6h-1.2L10,6.6H8.9l1.3-3.3h1.2l1.3,3.3H11.6z M11.2,5.4l-0.4-1l-0.4,1H11.2z"/>
		<path class="st1" d="M15.8,4L15,4.4c-0.2-0.2-0.4-0.3-0.6-0.3c-0.5,0-0.8,0.4-0.8,0.8l0,0c0,0.5,0.3,0.8,0.8,0.9l0,0
			c0.3,0,0.5-0.1,0.6-0.3L15.8,6c-0.3,0.5-0.9,0.7-1.4,0.7c-0.9,0.1-1.7-0.6-1.8-1.6s0.6-1.7,1.6-1.8c0.1,0,0.2,0,0.3,0
			C15,3.3,15.5,3.6,15.8,4z"/>
		<path class="st1" d="M19.3,4l-0.8,0.4c-0.2-0.2-0.4-0.3-0.6-0.3c-0.5,0-0.8,0.4-0.8,0.8l0,0c0,0.5,0.3,0.8,0.8,0.9l0,0
			c0.3,0,0.5-0.1,0.6-0.3L19.3,6c-0.3,0.5-0.9,0.7-1.4,0.7c-0.9,0.1-1.7-0.6-1.8-1.6c-0.1-0.9,0.6-1.7,1.6-1.8c0.1,0,0.2,0,0.3,0
			C18.5,3.3,19,3.6,19.3,4z"/>
		<path class="st1" d="M20.6,4.1v0.5h1.7v0.8h-1.7v0.5h1.8v0.8h-2.7V3.4h2.7v0.8h-1.8V4.1z"/>
		<path class="st1" d="M25.6,3.7l-0.4,0.7c-0.4-0.2-0.7-0.3-1.1-0.3c-0.2,0-0.3,0.1-0.3,0.2c0,0.2,0.1,0.1,0.6,0.3
			c0.8,0.2,1.3,0.4,1.3,1.1s-0.5,1.1-1.4,1.1c-0.6,0-1.1-0.1-1.6-0.4l0.4-0.7C23.5,5.9,24,6,24.4,6c0.2,0,0.3-0.1,0.3-0.2
			s-0.1-0.2-0.6-0.3c-0.7-0.2-1.3-0.4-1.3-1s0.6-1.1,1.4-1.1C24.7,3.3,25.2,3.4,25.6,3.7z"/>
		<path class="st1" d="M29.6,5c0,1-0.8,1.8-1.8,1.8S26.1,6,26.1,5s0.8-1.8,1.8-1.8C28.8,3.2,29.6,4,29.6,5z M27,5
			c0,0.5,0.4,0.8,0.8,0.8c0.5,0,0.8-0.4,0.8-0.8l0,0c0-0.5-0.4-0.8-0.8-0.8S27,4.5,27,5L27,5z"/>
		<polygon class="st1" points="19.8,12.6 26.2,11.6 13.4,11.6 		"/>
		<path class="st1" d="M25.5,14.3c-4-0.9-8,1.7-8.9,5.8l0,0c-0.2,0.9-0.2,1.8-0.1,2.7L8,28.3c-0.1,0.1-0.2,0.2-0.2,0.3L7,32.4
			c-0.1,0.3,0.1,0.6,0.4,0.7l0,0l3.2,0.7c0.1,0,0.3,0,0.4-0.1l1.3-0.8c0.1-0.1,0.2-0.2,0.2-0.3l0.3-1.3l1.3,0.3
			c0.3,0.1,0.6-0.1,0.6-0.4l0.1-0.5l0.5,0.1c0.3,0.1,0.6-0.1,0.6-0.4l0.2-1.2l1.2,0.2c0.1,0,0.3,0,0.4-0.1l2.1-1.3
			c0.8,0.5,1.6,0.8,2.5,1c4.1,0.7,7.9-2.1,8.6-6.1C31.6,19,29.2,15.3,25.5,14.3L25.5,14.3z M22.5,27.9c-0.9-0.2-1.7-0.5-2.4-1.1
			c-0.2-0.1-0.4-0.1-0.6,0l0,0l-2.2,1.4l-1.5-0.3c-0.3-0.1-0.6,0.1-0.6,0.4l0,0L15,29.5l-0.5-0.1c-0.3-0.1-0.6,0.1-0.7,0.4l-0.1,0.5
			L12.4,30c-0.3-0.1-0.6,0.1-0.6,0.4l0,0L11.4,32l-0.9,0.6l-2.4-0.5l0.1-0.8l7.9-5.1c0.2-0.1,0.3-0.4,0.2-0.7l0,0
			c-0.1-0.2-0.5-0.3-0.7-0.1L8.5,30l0.2-1l8.6-5.6l0,0c0.2-0.1,0.3-0.3,0.2-0.6c-0.7-3.5,1.5-6.9,5-7.6c3.5-0.7,6.9,1.5,7.6,5
			s-1.5,6.9-5,7.6C24.3,28.1,23.4,28.1,22.5,27.9L22.5,27.9z"/>
		<path class="st1" d="M27,17.9c-1.1-0.2-2.2,0.5-2.4,1.6s0.5,2.2,1.6,2.4c1.1,0.2,2.2-0.5,2.4-1.6l0,0C28.8,19.3,28.1,18.2,27,17.9
			L27,17.9z M26.4,20.8c-0.5-0.2-0.8-0.7-0.6-1.2c0.1-0.4,0.5-0.7,1-0.6c0.5,0,1,0.4,1,1c0,0.5-0.4,1-1,1
			C26.6,20.9,26.5,20.9,26.4,20.8L26.4,20.8z"/>
	</g>
</g>
</svg>
