<?xml version="1.0" encoding="utf-8"?>
<!-- Generator: Adobe Illustrator 26.3.1, SVG Export Plug-In . SVG Version: 6.00 Build 0)  -->
<svg version="1.1" id="Capa_1" xmlns="http://www.w3.org/2000/svg" xmlns:xlink="http://www.w3.org/1999/xlink" x="0px" y="0px"
	 viewBox="0 0 39 39" style="enable-background:new 0 0 39 39;" xml:space="preserve">
<style type="text/css">
	.st0{fill:#00975D;stroke:#FFFFFF;stroke-miterlimit:10;}
	.st1{clip-path:url(#SVGID_00000096035204329117010650000012908823931420414361_);}
	.st2{fill:#FFFFFF;}
</style>
<g id="Capa_2_00000149342198940776150980000017414666729653177987_">
	<g id="Capa_1-2">
		<path class="st0" d="M5.7,0.6h27.5c2.8,0,5.1,2.3,5.1,5.1v27.5c0,2.8-2.3,5.1-5.1,5.1H5.7c-2.8,0-5.1-2.3-5.1-5.1V5.7
			C0.6,2.9,2.9,0.6,5.7,0.6z"/>
	</g>
</g>
<g>
	<g id="Capa_1-2_1_">
		<g>
			<g>
				<g>
					<defs>
						<path id="SVGID_1_" d="M6.1,1.1h26.7c2.7,0,4.9,2.2,4.9,4.9v26.7c0,2.7-2.2,4.9-4.9,4.9H6.1c-2.7,0-4.9-2.2-4.9-4.9V6.1
							C1.2,3.3,3.4,1.1,6.1,1.1z"/>
					</defs>
					<clipPath id="SVGID_00000114044229886137171950000005713059950677396635_">
						<use xlink:href="#SVGID_1_"  style="overflow:visible;"/>
					</clipPath>
					<g style="clip-path:url(#SVGID_00000114044229886137171950000005713059950677396635_);">
						<path class="st2" d="M29.1,15.1H9.8c-1.8,0-3.2,1.4-3.2,3.2v26.2c0,1.8,1.4,3.2,3.2,3.2h19.4c1.8,0,3.2-1.4,3.2-3.2V34.2
							c0-0.4-0.4-0.6-0.8-0.6c-0.3,0-0.6,0.3-0.6,0.6v10.3c0,1-0.9,1.9-1.9,1.9H9.8c-1,0-1.9-0.9-1.9-1.9V18.2c0-1,0.9-1.9,1.9-1.9
							h19.4c1,0,1.9,0.9,1.9,1.9v10.2c0,0.4,0.2,0.7,0.6,0.8c0.4,0,0.7-0.2,0.8-0.6c0-0.1,0-0.1,0-0.2V18.2
							C32.4,16.5,30.9,15.1,29.1,15.1z"/>
						<path class="st2" d="M23.1,17.6H9.8c-0.4,0-0.7,0.3-0.7,0.7v26.2c0,0.4,0.3,0.7,0.7,0.7l0,0h19.4c0.4,0,0.7-0.3,0.7-0.7l0,0
							V18.2c0-0.4-0.3-0.7-0.7-0.7L23.1,17.6L23.1,17.6z M22.4,18.9v3.3h-5.9v-3.3H22.4z M15.3,18.9v4c0,0.4,0.3,0.7,0.7,0.7l0,0
							h7.1c0.4,0,0.7-0.3,0.7-0.7v-4h4.8v11.8h-4.8c-0.4-2.3-2.5-3.9-4.8-3.5c-1.8,0.3-3.2,1.7-3.5,3.5h-4.9V18.9H15.3z M16.6,30.7
							c0.4-1.6,1.9-2.6,3.5-2.2c1.1,0.3,2,1.1,2.2,2.2H16.6z M22.3,32c-0.4,1.6-1.9,2.6-3.5,2.2c-1.1-0.3-2-1.1-2.2-2.2H22.3z
							 M16.5,43.8v-3.3h5.9v3.3H16.5z M23.7,43.8v-4c0-0.4-0.3-0.7-0.7-0.7h-7c-0.4,0-0.7,0.3-0.7,0.7l0,0v4h-4.8V32h4.9
							c0.4,2.3,2.5,3.9,4.8,3.5c1.8-0.3,3.2-1.7,3.5-3.5h4.8v11.8H23.7z"/>
						<path class="st2" d="M31.7,30.7c-0.4,0-0.7,0.3-0.7,0.7c0,0.2,0.1,0.4,0.2,0.5c0.1,0.1,0.3,0.2,0.5,0.2c0.4,0,0.7-0.3,0.7-0.7
							l0,0c0-0.2-0.1-0.3-0.2-0.5C32.1,30.8,31.9,30.7,31.7,30.7z"/>
					</g>
				</g>
			</g>
		</g>
		<path class="st2" d="M10.9,4.5L10.1,5C9.9,4.7,9.6,4.6,9.3,4.7C8.9,4.7,8.5,5,8.5,5.5c0,0,0,0,0,0.1c0,0.5,0.4,0.9,0.9,0.9
			c0.3,0,0.6-0.1,0.7-0.4L11,6.6c-0.4,0.5-0.9,0.8-1.5,0.8C8.3,7.6,7.4,7,7.1,6s0.4-2,1.4-2.3c0.3-0.1,0.6-0.1,0.9,0
			C10,3.7,10.6,4,10.9,4.5z"/>
		<path class="st2" d="M14,7.3l-0.2-0.7h-1.3l-0.2,0.7h-1.1l1.3-3.5h1.2l1.4,3.5H14z M13.5,6l-0.4-1.1L12.8,6H13.5z"/>
		<path class="st2" d="M18,7.3l-1.4-2v2h-0.9V3.8h0.9l1.4,2v-2h0.9v3.5H18z"/>
		<path class="st2" d="M22.9,4.5L22,4.9c-0.2-0.2-0.5-0.4-0.8-0.4c-0.5,0-0.9,0.4-0.9,0.9c0,0,0,0,0,0.1c0,0.5,0.4,0.9,0.9,0.9
			c0.3,0,0.6-0.1,0.8-0.4l0.9,0.6c-0.4,0.5-0.9,0.8-1.5,0.8c-1,0.2-2-0.4-2.3-1.4c-0.2-1,0.4-2,1.4-2.3c0.3-0.1,0.6-0.1,0.9,0
			C21.9,3.7,22.5,4,22.9,4.5z"/>
		<path class="st2" d="M25.8,7.3V6h-1.4v1.3h-0.9V3.8h0.9v1.3h1.4V3.8h0.9v3.5H25.8z"/>
		<path class="st2" d="M30.2,7.3L30,6.6h-1.3l-0.2,0.7h-1.1l1.2-3.5h1.2l1.5,3.5C31.3,7.3,30.2,7.3,30.2,7.3z M29.6,6l-0.4-1.1
			L28.8,6H29.6z"/>
		<polygon class="st2" points="19.5,9.6 25.7,8.6 13.3,8.6 		"/>
	</g>
</g>
</svg>
