<?xml version="1.0" encoding="utf-8"?>
<!-- Generator: Adobe Illustrator 26.3.1, SVG Export Plug-In . SVG Version: 6.00 Build 0)  -->
<svg version="1.1" id="Capa_1" xmlns="http://www.w3.org/2000/svg" xmlns:xlink="http://www.w3.org/1999/xlink" x="0px" y="0px"
	 viewBox="0 0 39 39" style="enable-background:new 0 0 39 39;" xml:space="preserve">
<style type="text/css">
	.st0{fill:#F18628;stroke:#FFFFFF;stroke-miterlimit:10;}
	.st1{fill:#FFFFFF;}
</style>
<g id="Capa_2_00000149342198940776150980000017414666729653177987_">
	<g id="Capa_1-2">
		<path class="st0" d="M5.7,0.6h27.5c2.8,0,5.1,2.3,5.1,5.1v27.5c0,2.8-2.3,5.1-5.1,5.1H5.7c-2.8,0-5.1-2.3-5.1-5.1V5.7
			C0.6,2.9,2.9,0.6,5.7,0.6z"/>
	</g>
</g>
<g id="Capa_2_00000182491912316140738130000015433073974932823727_">
	<g id="Capa_1-2_00000169515946098890813540000016335563298467216319_">
		<path class="st1" d="M4.9,7v0.5h1.7v0.8H4.9v0.5h1.9v0.8H4V6.2h2.8V7H4.9z"/>
		<path class="st1" d="M10.5,9.6H9.4l-0.6-1l-0.7,1H7l1.2-1.7L7.1,6.2h1.1l0.6,0.9l0.6-0.9h1.1L9.3,7.8L10.5,9.6z"/>
		<path class="st1" d="M12.4,6.2c1,0,1.5,0.4,1.5,1.2s-0.5,1.2-1.5,1.2h-0.6v1h-0.9V6.2H12.4z M11.8,7.9h0.5c0.4,0,0.6-0.1,0.6-0.5
			S12.7,7,12.3,7h-0.5V7.9z"/>
		<path class="st1" d="M16.9,8.8v0.8h-2.6V6.2h0.9v2.6C15.2,8.8,16.9,8.8,16.9,8.8z"/>
		<path class="st1" d="M19.9,9.6L19.6,9h-1.3l-0.2,0.6H17l1.3-3.4h1.2l1.4,3.4H19.9z M19.4,8.2l-0.4-1l-0.4,1H19.4z"/>
		<path class="st1" d="M23.5,9.6l-1.4-1.9v1.9h-0.9V6.2h0.9l1.4,1.9V6.2h0.9v3.4H23.5z"/>
		<path class="st1" d="M27.6,9.6L27.4,9h-1.3l-0.2,0.6h-1.1l1.3-3.4h1.2l1.4,3.4H27.6z M27.2,8.2l-0.4-1l-0.4,1H27.2z"/>
		<path class="st1" d="M30.5,6.2c1,0,1.8,0.7,1.8,1.7l0,0c0,1-0.8,1.7-1.8,1.7l0,0h-1.4V6.2H30.5z M30,8.8h0.5
			c0.5,0,0.9-0.4,0.9-0.9S31,7,30.5,7H30V8.8z"/>
		<path class="st1" d="M35.1,9.6L34.9,9h-1.3l-0.2,0.6h-1.1l1.3-3.4h1.2l1.3,3.4H35.1z M34.7,8.2l-0.4-1l-0.4,1H34.7z"/>
		<polygon class="st1" points="19.6,12.4 26.2,11.4 13.1,11.4 		"/>
		<path class="st1" d="M32.2,27.2v-5.4c0-3.7-3-6.7-6.7-6.7H13c-3.7,0-6.7,3-6.7,6.7v5.4c0,3.7,3,6.7,6.7,6.7h12.5
			C29.2,33.9,32.2,30.9,32.2,27.2z M31.4,27.2c0,1.5-0.6,3-1.7,4.1L29,30.6c0.9-0.9,1.4-2.2,1.4-3.5v-5.4c0-1.3-0.5-2.5-1.4-3.5
			l0.7-0.6c1.1,1.1,1.7,2.6,1.7,4.1C31.4,21.7,31.4,27.2,31.4,27.2z M12.6,19.6H26c0.8,0,1.4,0.6,1.4,1.4l0,0v7.1
			c0,0.8-0.6,1.4-1.4,1.4l0,0H12.6c-0.8,0-1.4-0.6-1.4-1.4l0,0V21C11.2,20.2,11.8,19.6,12.6,19.6L12.6,19.6z M27.7,29.4
			c0.3-0.4,0.5-0.9,0.5-1.4v-7.1c0-0.5-0.2-1-0.5-1.4l0.7-0.6c0.8,0.8,1.2,1.8,1.2,2.9v5.4c0,1.1-0.4,2.1-1.2,2.9L27.7,29.4z
			 M27.1,19c-0.3-0.2-0.7-0.3-1.1-0.2H12.6c-0.3,0-0.7,0.1-1,0.3L11,18.5c0.6-0.4,1.4-0.6,2.1-0.6h12.5c0.8,0,1.5,0.2,2.2,0.6
			L27.1,19z M10.9,19.5c-0.3,0.4-0.5,0.9-0.5,1.4V28c0,0.5,0.2,1,0.5,1.4L10.2,30C9.4,29.3,9,28.3,9,27.2v-5.4
			c0-1.1,0.5-2.2,1.2-2.9L10.9,19.5z M11.5,30c0.3,0.2,0.7,0.3,1,0.3H26c0.4,0,0.8-0.1,1.1-0.3l0.6,0.6c-0.7,0.4-1.4,0.6-2.2,0.6H13
			c-0.8,0-1.5-0.2-2.1-0.6L11.5,30z M25.5,16c1.3,0,2.5,0.4,3.5,1.2l-0.7,0.7c-0.8-0.6-1.8-0.9-2.8-0.9H13c-1,0-1.9,0.3-2.8,0.9
			l-0.7-0.7c1-0.7,2.2-1.2,3.5-1.1h12.5V16z M7.2,27.2v-5.4c0-1.6,0.6-3,1.7-4.1l0.7,0.6c-0.9,0.9-1.5,2.2-1.5,3.5v5.4
			c0,1.3,0.5,2.6,1.5,3.5l-0.7,0.6C7.8,30.2,7.2,28.7,7.2,27.2z M13,33c-1.3,0-2.5-0.4-3.5-1.1l0.7-0.7c0.8,0.6,1.8,0.9,2.8,0.9
			h12.5c1,0,2-0.3,2.8-0.9l0.7,0.7c-1,0.8-2.3,1.2-3.5,1.2L13,33L13,33z"/>
	</g>
</g>
</svg>
