<?xml version="1.0" encoding="utf-8"?>
<!-- Generator: Adobe Illustrator 26.3.1, SVG Export Plug-In . SVG Version: 6.00 Build 0)  -->
<svg version="1.1" id="Capa_1" xmlns="http://www.w3.org/2000/svg" xmlns:xlink="http://www.w3.org/1999/xlink" x="0px" y="0px"
	 viewBox="0 0 39 39" style="enable-background:new 0 0 39 39;" xml:space="preserve">
<style type="text/css">
	.st0{fill:#BEA05C;stroke:#FFFFFF;stroke-miterlimit:10;}
	.st1{fill:#FFFFFF;}
</style>
<g id="Capa_2_00000149342198940776150980000017414666729653177987_">
	<g id="Capa_1-2">
		<path class="st0" d="M5.7,0.6h27.5c2.8,0,5.1,2.3,5.1,5.1v27.5c0,2.8-2.3,5.1-5.1,5.1H5.7c-2.8,0-5.1-2.3-5.1-5.1V5.7
			C0.6,2.9,2.9,0.6,5.7,0.6z"/>
	</g>
</g>
<g>
	<path class="st1" d="M12.6,5c1,0,1.5,0.4,1.5,1.2s-0.5,1.2-1.5,1.2H12v1h-0.9V5H12.6z M12,6.7h0.5c0.4,0,0.6-0.1,0.6-0.5
		s-0.2-0.5-0.6-0.5H12V6.7z"/>
	<path class="st1" d="M16.7,8.4l-0.2-0.6h-1.3L15,8.4h-1.1L15.2,5h1.2l1.3,3.4H16.7z M16.2,7.1l-0.4-1l-0.4,1H16.2z"/>
	<path class="st1" d="M20.7,7.6v0.8h-2.5V5h0.9v2.6H20.7z"/>
	<path class="st1" d="M24.1,5.7l-0.8,0.4c-0.1-0.2-0.4-0.3-0.6-0.3c-0.5,0-0.8,0.4-0.8,0.9l0,0c0,0.5,0.4,0.9,0.8,0.9l0,0
		c0.3,0,0.5-0.1,0.7-0.3l0.8,0.4c-0.3,0.5-0.9,0.7-1.5,0.7c-0.9,0.2-1.9-0.4-2-1.4c-0.2-0.9,0.4-1.9,1.4-2c0.2,0,0.4,0,0.6,0
		C23.2,5,23.8,5.3,24.1,5.7z"/>
	<path class="st1" d="M28,6.7c0,1-0.8,1.8-1.8,1.8s-1.8-0.8-1.8-1.8s0.8-1.8,1.8-1.8S28,5.7,28,6.7z M25.3,6.7
		c0,0.5,0.4,0.9,0.9,0.9s0.9-0.4,0.9-0.9l0,0c0-0.5-0.4-0.9-0.9-0.9C25.7,5.8,25.3,6.2,25.3,6.7L25.3,6.7z"/>
	<g>
		<path class="st1" d="M5.4,9h1.5c1,0,1.9,0.8,1.8,1.7c0,1-0.8,1.7-1.8,1.7H5.4V9z M6.4,9.9v1.8h0.5c0.3,0,0.5-0.1,0.7-0.3
			c0.1-0.2,0.2-0.4,0.2-0.6s-0.1-0.5-0.3-0.7C7.3,10,7.1,9.9,6.9,9.9H6.4z"/>
		<path class="st1" d="M10.3,12.5h-1V9h0.9v3.5H10.3z"/>
		<path class="st1" d="M11,9h1.5c1.1,0,1.6,0.4,1.6,1.2c0,0.6-0.2,0.9-0.7,1.1l0.8,1.2h-1.1l-0.7-1h-0.2h-0.4v1h-0.9L11,9L11,9z
			 M11.9,9.9v0.8h0.7c0.4,0,0.6-0.1,0.6-0.4S13,9.9,12.6,9.9H11.9z"/>
		<path class="st1" d="M17.4,9.9h-1.9v0.5h1.8v0.8h-1.8v0.5h1.9v0.8h-2.8V9h2.8V9.9z"/>
		<path class="st1" d="M21.2,9.7l-0.8,0.4C20.2,10,20,9.9,19.7,9.9c-0.2,0-0.5,0.1-0.6,0.3s-0.2,0.4-0.2,0.6s0.1,0.5,0.2,0.6
			s0.4,0.3,0.6,0.3c0.3,0,0.5-0.1,0.7-0.3l0.8,0.4c-0.3,0.5-0.9,0.8-1.5,0.8c-1,0-1.8-0.8-1.8-1.8S18.7,9,19.7,9
			C20.3,9,20.8,9.3,21.2,9.7z"/>
		<path class="st1" d="M24.4,9.8h-1v2.6h-0.9V9.8h-1V9h2.9V9.8z"/>
		<path class="st1" d="M25.8,12.5h-0.9V9h0.9V12.5z"/>
		<path class="st1" d="M28.8,12.5h-1.2L26.3,9h1.1l0.8,2.3L29,9h1.1L28.8,12.5z"/>
		<path class="st1" d="M33.6,12.5h-1.1l-0.2-0.6H31l-0.2,0.6h-1.1L31.1,9h1.2L33.6,12.5z M31.3,11.1h0.8l-0.4-1L31.3,11.1z"/>
	</g>
	<polygon class="st1" points="19.6,14.5 26.1,13.5 13,13.5 	"/>
	<path class="st1" d="M19.9,17.4c0.5,0,0.9,0.3,1,0.8l1.4,4.4c0.2,0.5,0.6,0.8,1,0.8h4.6c0.6,0,1.1,0.5,1.1,1.1
		c0,0.3-0.2,0.7-0.4,0.9L24.9,28c-0.4,0.3-0.6,0.8-0.4,1.2l1.4,4.4c0.2,0.6-0.1,1.2-0.7,1.4c-0.1,0-0.2,0.1-0.3,0.1
		c-0.2,0-0.5-0.1-0.6-0.2l-3.8-2.7c-0.4-0.3-0.9-0.3-1.3,0l-3.8,2.7c-0.2,0.1-0.4,0.2-0.6,0.2c-0.6,0-1.1-0.5-1.1-1.1
		c0-0.1,0-0.2,0.1-0.3l1.4-4.4c0.1-0.5,0-1-0.4-1.2L11,25.4c-0.5-0.4-0.6-1.1-0.2-1.6c0.2-0.3,0.5-0.4,0.9-0.4h4.6
		c0.5,0,0.9-0.3,1-0.8l1.4-4.4C18.9,17.7,19.3,17.4,19.9,17.4 M19.8,16.5c-0.9,0-1.6,0.6-1.9,1.4l-1.4,4.4c0,0.1-0.1,0.2-0.2,0.2
		h-4.6c-1.1,0-2,0.9-2,2c0,0.6,0.3,1.2,0.8,1.5l3.8,2.7c0.1,0.1,0.1,0.2,0.1,0.3L13,33.4c-0.2,0.6-0.1,1.3,0.3,1.8
		c0.4,0.5,1,0.8,1.6,0.8c0.4,0,0.8-0.1,1.2-0.4l3.7-2.7c0.1-0.1,0.2-0.1,0.3,0l3.8,2.7c0.3,0.2,0.7,0.4,1.2,0.4
		c0.6,0,1.2-0.3,1.6-0.8s0.5-1.2,0.3-1.8L25.4,29c0-0.1,0-0.2,0.1-0.3l3.8-2.7c0.9-0.7,1.1-1.9,0.4-2.8c-0.4-0.5-1-0.8-1.6-0.8h-4.7
		c-0.1,0-0.2-0.1-0.2-0.2l-1.4-4.4C21.5,17,20.7,16.5,19.8,16.5L19.8,16.5z"/>
</g>
</svg>
