<?xml version="1.0" encoding="utf-8"?>
<!-- Generator: Adobe Illustrator 26.3.1, SVG Export Plug-In . SVG Version: 6.00 Build 0)  -->
<svg version="1.1" id="Capa_1" xmlns="http://www.w3.org/2000/svg" xmlns:xlink="http://www.w3.org/1999/xlink" x="0px" y="0px"
	 viewBox="0 0 39 39" style="enable-background:new 0 0 39 39;" xml:space="preserve">
<style type="text/css">
	.st0{fill:#E73487;stroke:#FFFFFF;stroke-miterlimit:10;}
	.st1{fill:#FFFFFF;}
</style>
<g id="Capa_2_00000149342198940776150980000017414666729653177987_">
	<g id="Capa_1-2">
		<path class="st0" d="M5.7,0.6h27.5c2.8,0,5.1,2.3,5.1,5.1v27.5c0,2.8-2.3,5.1-5.1,5.1H5.7c-2.8,0-5.1-2.3-5.1-5.1V5.7
			C0.6,2.9,2.9,0.6,5.7,0.6z"/>
	</g>
</g>
<g id="Capa_2_00000018948364356360890040000013842888652143798436_">
	<g id="Capa_1-2_00000144333547298598776910000016528451774233463453_">
		<path class="st1" d="M9,6.5v2.9H8V6.5H6.9V5.6h3.2v0.9H9z"/>
		<path class="st1" d="M12.3,5.6C13.5,5.6,14,6,14,6.9c0.1,0.5-0.3,1-0.8,1.2l0.9,1.3h-1.2l-0.7-1.2h-0.6v1.2h-1V5.6H12.3z
			 M11.6,7.5h0.7c0.4,0,0.6-0.1,0.6-0.5s-0.2-0.5-0.6-0.5h-0.7V7.5z"/>
		<path class="st1" d="M14.5,9.4V5.6h1v3.8H14.5z"/>
		<path class="st1" d="M18.3,5.6c0.8,0,1.2,0.3,1.2,1c0,0.4-0.2,0.7-0.5,0.8c0.5,0.1,0.8,0.5,0.7,1c0,0.5-0.3,1-1.3,1h-2.1V5.6H18.3
			z M18,7.1c0.3,0,0.5-0.1,0.5-0.3S18.3,6.4,18,6.4h-0.7v0.7H18z M18.1,8.6c0.4,0,0.5-0.2,0.5-0.4s-0.1-0.4-0.5-0.4h-0.9v0.8H18.1z"
			/>
		<path class="st1" d="M23.7,7.7c0.1,0.9-0.5,1.7-1.4,1.8c-0.1,0-0.3,0-0.4,0C21,9.6,20.3,8.9,20.2,8c0-0.1,0-0.3,0-0.4v-2h1v2
			c0,0.6,0.3,0.9,0.7,0.9s0.7-0.3,0.7-0.9v-2h1L23.7,7.7z"/>
		<path class="st1" d="M26.8,9.4l-1.5-2.1v2.1h-1V5.6h1l1.6,2.1V5.6h1v3.8H26.8z"/>
		<path class="st1" d="M31.4,9.4l-0.2-0.7h-1.4l-0.2,0.7h-1.2l1.5-3.8h1.3l1.5,3.8H31.4z M30.9,7.9l-0.4-1.2L30,7.9H30.9z"/>
		<polygon class="st1" points="19.8,11.7 26.3,10.7 13.2,10.7 		"/>
		<path class="st1" d="M12,25.6v-5.8c0-1.3-1-2.3-2.3-2.3l0,0H6.3c-1.3,0-2.3,1-2.3,2.3l0,0v5.8c-1.2,0.3-1.9,1.6-1.6,2.8
			c0.3,1,1.1,1.7,2.2,1.7h6.8c1.3,0,2.3-1,2.3-2.3C13.7,26.8,13,25.9,12,25.6L12,25.6z M5.2,19.9c0-0.6,0.5-1.1,1.1-1.1h3.4
			c0.6,0,1.1,0.5,1.1,1.1v5.7H5.2V19.9z M11.4,29H4.6c-0.6,0.1-1.2-0.4-1.2-1c-0.1-0.6,0.4-1.2,1-1.2c0.1,0,0.1,0,0.2,0h6.8
			c0.6-0.1,1.2,0.4,1.2,1s-0.4,1.2-1,1.2C11.6,29,11.5,29,11.4,29z"/>
		<path class="st1" d="M23.4,25.6v-5.8c0-1.3-1-2.3-2.3-2.3h-3.4c-1.3,0-2.3,1-2.3,2.3l0,0v5.8c-1.2,0.3-1.9,1.6-1.6,2.8
			c0.3,1,1.1,1.7,2.2,1.7h6.8c1.3,0,2.3-1,2.3-2.3C25.1,26.8,24.4,25.9,23.4,25.6L23.4,25.6z M16.5,19.9c0-0.6,0.5-1.1,1.1-1.1H21
			c0.6,0,1.1,0.5,1.1,1.1v5.7h-5.7L16.5,19.9L16.5,19.9z M22.8,29H16c-0.6,0.1-1.2-0.4-1.2-1s0.4-1.2,1-1.2c0.1,0,0.1,0,0.2,0h6.8
			c0.6,0.1,1.1,0.6,1,1.2C23.8,28.5,23.3,28.9,22.8,29z"/>
		<path class="st1" d="M34.7,25.6v-5.8c0-1.3-1-2.3-2.3-2.3l0,0H29c-1.3,0-2.3,1-2.3,2.3l0,0v5.8c-1.2,0.3-1.9,1.6-1.6,2.8
			c0.3,1,1.1,1.7,2.2,1.7h6.8c1.3,0,2.3-1,2.3-2.3C36.5,26.8,35.7,25.9,34.7,25.6L34.7,25.6z M27.9,19.9c0-0.6,0.5-1.1,1.1-1.1h3.4
			c0.6,0,1.1,0.5,1.1,1.1v5.7h-5.7v-5.7H27.9z M34.2,29h-6.8c-0.6,0.1-1.2-0.4-1.2-1c-0.1-0.6,0.4-1.2,1-1.2c0.1,0,0.1,0,0.2,0h6.8
			c0.6-0.1,1.2,0.4,1.2,1c0.1,0.6-0.4,1.2-1,1.2C34.3,29,34.2,29,34.2,29L34.2,29z"/>
		<path class="st1" d="M6.9,19.9h2.2V21H6.9V19.9z"/>
		<path class="st1" d="M18.2,19.9h2.3V21h-2.3V19.9z"/>
		<path class="st1" d="M29.6,19.9h2.3V21h-2.3V19.9z"/>
		<path class="st1" d="M2.3,31.2h34.1v1.1H2.3V31.2z"/>
	</g>
</g>
</svg>
