<svg xmlns="http://www.w3.org/2000/svg" viewBox="0 0 38.95 38.95"><defs><style>.cls-1{fill:#fff;stroke:#036896;stroke-miterlimit:10;stroke-width:0.38px;}.cls-2{fill:#00161d;}.cls-3{fill:#231f20;}</style></defs><title>ZONA DE MEDIOSRecurso 6</title><g id="Capa_2" data-name="Capa 2"><g id="Capa_1-2" data-name="Capa 1"><rect class="cls-1" x="0.19" y="0.19" width="38.57" height="38.57" rx="5.18"/><path class="cls-2" d="M11.86,10.92V8.49l-1.14,1.93h-.35L9.23,8.49v2.43h-1V7.13H9.56l1,1.62,1-1.62h1.33v3.79Z"/><path class="cls-2" d="M14.58,8v.53h1.93v.86H14.58V10h2.11v.92H13.56V7.13h3.1V8Z"/><path class="cls-2" d="M18.81,7.13a2,2,0,0,1,2,1.89,2,2,0,0,1-2,1.9H17.19V7.13ZM18.21,10h.57a1,1,0,1,0,0-2h-.57Z"/><path class="cls-2" d="M21.43,10.92V7.13h1v3.79Z"/><path class="cls-2" d="M27.1,9a2,2,0,1,1-2-1.95A2,2,0,0,1,27.1,9Zm-3,0a1,1,0,1,0,1-1A1,1,0,0,0,24.11,9Z"/><path class="cls-2" d="M30.87,7.5l-.42.78a3.21,3.21,0,0,0-1.32-.35c-.2,0-.36.08-.36.25s.07.17.66.32C30.32,8.73,31,9,31,9.73S30.34,11,29.36,11a3.37,3.37,0,0,1-1.86-.52L28,9.69a3.18,3.18,0,0,0,1.52.41c.21,0,.39-.07.39-.24s-.11-.24-.73-.4c-.86-.21-1.48-.41-1.48-1.15s.69-1.24,1.58-1.24A3.19,3.19,0,0,1,30.87,7.5Z"/><path class="cls-2" d="M8.11,5.39H10v.9H6.65V5.56L8.4,3.4H6.78V2.5H9.93v.72Z"/><path class="cls-2" d="M14.45,4.4a2,2,0,0,1-4.06,0,2,2,0,0,1,4.06,0Zm-3,0a1,1,0,1,0,1.94,0,1,1,0,1,0-1.94,0Z"/><path class="cls-2" d="M17.54,6.29,16,4.18V6.29H15V2.5h1.06l1.52,2.12V2.5h1V6.29Z"/><path class="cls-2" d="M22.12,6.29l-.24-.66H20.46l-.24.66H19L20.5,2.5h1.33l1.51,3.79Zm-.51-1.47-.44-1.18-.44,1.18Z"/><path class="cls-2" d="M26.67,2.5a2,2,0,0,1,2,1.9,1.94,1.94,0,0,1-2,1.89H25.05V2.5Zm-.6,2.88h.57a1,1,0,1,0,0-2h-.57Z"/><path class="cls-2" d="M30.32,3.42v.52h1.93v.87H30.32v.57h2.11v.91H29.29V2.5H32.4v.92Z"/><polygon class="cls-2" points="19.85 12.81 26.4 11.8 13.3 11.8 19.85 12.81"/><path class="cls-3" d="M24.7,21.77V17.19A3.24,3.24,0,0,0,21.46,14h-4a3.24,3.24,0,0,0-3.24,3.24v4.58H11.66v5.87a5.83,5.83,0,0,0,5.83,5.83h0v1.3H14.25v1.3H24.7v-1.3H21.42v-1.3h0a5.83,5.83,0,0,0,5.83-5.83V21.77Zm-7.21-6.53h4a2,2,0,0,1,1.95,2v.95H20.17v1.29h3.24v2.34H20.17v1.29h3.24v2.42H20.17v1.3h3.24v.86a2,2,0,0,1-1.95,1.95h-4a2,2,0,0,1-1.95-1.95v-.86h3.24v-1.3H15.54V23.06h3.24V21.77H15.54V19.43h3.24V18.14H15.54v-.95A2,2,0,0,1,17.49,15.24Zm2.63,19.53H18.83v-1.3h1.29ZM26,27.64a4.55,4.55,0,0,1-4.54,4.54h-4A4.55,4.55,0,0,1,13,27.64V23.06h1.3v4.58a3.24,3.24,0,0,0,3.24,3.24h4a3.24,3.24,0,0,0,3.24-3.24V23.06H26Z"/></g></g></svg>